<svg width="16" height="17" viewBox="0 0 16 17" fill="none" xmlns="http://www.w3.org/2000/svg">
<path d="M14 5.66675H2C1.72667 5.66675 1.5 5.44008 1.5 5.16675C1.5 4.89341 1.72667 4.66675 2 4.66675H14C14.2733 4.66675 14.5 4.89341 14.5 5.16675C14.5 5.44008 14.2733 5.66675 14 5.66675Z" fill="#00092E"/>
<path d="M12 9H4C3.72667 9 3.5 8.77333 3.5 8.5C3.5 8.22667 3.72667 8 4 8H12C12.2733 8 12.5 8.22667 12.5 8.5C12.5 8.77333 12.2733 9 12 9Z" fill="#00092E"/>
<path d="M9.33366 12.3333H6.66699C6.39366 12.3333 6.16699 12.1066 6.16699 11.8333C6.16699 11.5599 6.39366 11.3333 6.66699 11.3333H9.33366C9.60699 11.3333 9.83366 11.5599 9.83366 11.8333C9.83366 12.1066 9.60699 12.3333 9.33366 12.3333Z" fill="#00092E"/>
</svg>
